<svg xmlns="http://www.w3.org/2000/svg" width="1248" height="584" viewBox="0 0 1248 584"><rect width="100%" height="100%" fill="#45427c"/><path fill="#45427c" d="M301.26 331.54h19.11v13.6h-58.8v-13.6h21.54v-61.96q0-3.67.22-7.57l-15.29 12.79q-1.32 1.03-2.61 1.29-1.29.25-2.43.03-1.13-.22-2.02-.77-.88-.55-1.32-1.21l-5.73-7.87 32.41-27.56h14.92v92.83Zm73.13-3.3h27.27q2.94 0 4.67 1.65t1.73 4.37v10.88h-72.91v-6.03q0-1.83.77-3.86.77-2.02 2.46-3.63l32.27-32.34q4.04-4.12 7.24-7.87 3.19-3.75 5.32-7.42 2.14-3.68 3.27-7.46 1.14-3.79 1.14-7.98 0-3.82-1.1-6.72-1.1-2.91-3.12-4.89-2.02-1.98-4.85-2.98-2.83-.99-6.36-.99-3.23 0-5.99.92-2.76.92-4.89 2.57-2.13 1.66-3.6 3.86-1.47 2.21-2.21 4.85-1.24 3.38-3.23 4.49-1.98 1.1-5.73.51l-9.56-1.69q1.11-7.64 4.27-13.41 3.16-5.77 7.9-9.63 4.74-3.86 10.87-5.81 6.14-1.95 13.2-1.95 7.35 0 13.45 2.17t10.44 6.14q4.33 3.97 6.76 9.55 2.42 5.59 2.42 12.43 0 5.87-1.72 10.87-1.73 5-4.63 9.56-2.91 4.56-6.8 8.82-3.9 4.26-8.16 8.67l-23.96 24.48q3.45-1.03 6.87-1.58t6.5-.55Zm60.42-23.16h32.34v-34.76q0-4.93.66-10.88l-33 45.64Zm48.14 0h13.38v10.51q0 1.47-.95 2.54-.96 1.06-2.72 1.06h-9.71v25.95h-15.8v-25.95h-44.83q-1.84 0-3.24-1.13-1.39-1.14-1.76-2.83l-1.91-9.19 50.34-67.25h17.2v66.29Zm59.76 27.05q4.48 0 7.86-1.29 3.38-1.28 5.7-3.56 2.32-2.28 3.49-5.44 1.18-3.16 1.18-6.83 0-8.75-4.85-13.23-4.85-4.49-13.38-4.49-8.53 0-13.38 4.49-4.85 4.48-4.85 13.23 0 3.67 1.18 6.83 1.17 3.16 3.49 5.44 2.31 2.28 5.69 3.56 3.39 1.29 7.87 1.29Zm0-80.78q-4.04 0-6.98 1.25-2.94 1.25-4.89 3.35-1.95 2.09-2.87 4.81-.92 2.72-.92 5.74 0 3.16.78 6.13.77 2.98 2.6 5.29 1.84 2.32 4.86 3.72 3.01 1.39 7.42 1.39t7.42-1.39q3.02-1.4 4.85-3.72 1.84-2.31 2.61-5.29.77-2.97.77-6.13 0-3.02-.95-5.74-.96-2.72-2.87-4.81-1.91-2.1-4.85-3.35-2.94-1.25-6.98-1.25Zm17.93 38.37q9.7 3.16 14.34 9.67 4.63 6.5 4.63 15.91 0 7.05-2.69 12.79-2.68 5.73-7.53 9.77-4.85 4.05-11.65 6.25-6.8 2.21-15.03 2.21t-15.03-2.21q-6.8-2.2-11.65-6.25-4.85-4.04-7.54-9.77-2.68-5.74-2.68-12.79 0-9.41 4.63-15.91 4.63-6.51 14.34-9.67-7.72-3.23-11.58-9.19-3.86-5.95-3.86-14.33 0-6.03 2.46-11.24 2.46-5.22 6.87-9.08 4.41-3.86 10.55-6.03 6.14-2.17 13.49-2.17 7.35 0 13.49 2.17 6.13 2.17 10.54 6.03 4.41 3.86 6.88 9.08 2.46 5.21 2.46 11.24 0 8.38-3.86 14.33-3.86 5.96-11.58 9.19Zm137.74 31.09-9.63 9.48-24.91-24.91-25.14 25.06-9.63-9.48 25.14-25.21-23.96-23.96 9.55-9.56 23.96 23.96 23.82-23.81 9.7 9.55-23.89 23.89 24.99 24.99Zm77.25-65.49-3.75 22.13q3.53-.74 6.76-1.07 3.24-.33 6.25-.33 8.38 0 14.77 2.5 6.4 2.5 10.74 6.91 4.33 4.41 6.54 10.32 2.2 5.92 2.2 12.76 0 8.45-2.97 15.43-2.98 6.98-8.27 11.95-5.3 4.96-12.53 7.68-7.24 2.72-15.77 2.72-5 0-9.48-1.03-4.49-1.03-8.42-2.76-3.93-1.73-7.27-3.97-3.35-2.24-5.99-4.74l5.58-7.72q1.77-2.5 4.63-2.5 1.84 0 3.75 1.18t4.37 2.57q2.47 1.4 5.81 2.58 3.34 1.17 8.05 1.17 5 0 8.82-1.62 3.82-1.61 6.36-4.52 2.53-2.9 3.82-6.9 1.28-4.01 1.28-8.71 0-8.68-5.03-13.57-5.04-4.88-14.88-4.88-7.57 0-15.51 2.79l-11.32-3.23 8.82-51.6h52.48v7.72q0 3.89-2.43 6.32-2.42 2.42-8.23 2.42h-29.18Zm94.3 76.81q4.48 0 7.87-1.29 3.38-1.28 5.69-3.56 2.32-2.28 3.49-5.44 1.18-3.16 1.18-6.83 0-8.75-4.85-13.23-4.85-4.49-13.38-4.49-8.53 0-13.38 4.49-4.85 4.48-4.85 13.23 0 3.67 1.18 6.83 1.17 3.16 3.49 5.44 2.32 2.28 5.7 3.56 3.38 1.29 7.86 1.29Zm0-80.78q-4.04 0-6.98 1.25-2.94 1.25-4.89 3.35-1.95 2.09-2.87 4.81-.91 2.72-.91 5.74 0 3.16.77 6.13.77 2.98 2.61 5.29 1.83 2.32 4.85 3.72 3.01 1.39 7.42 1.39t7.42-1.39q3.02-1.4 4.86-3.72 1.83-2.31 2.6-5.29.78-2.97.78-6.13 0-3.02-.96-5.74-.95-2.72-2.87-4.81-1.91-2.1-4.85-3.35-2.94-1.25-6.98-1.25Zm17.94 38.37q9.7 3.16 14.33 9.67 4.63 6.5 4.63 15.91 0 7.05-2.68 12.79-2.69 5.73-7.54 9.77-4.85 4.05-11.65 6.25-6.8 2.21-15.03 2.21t-15.03-2.21q-6.8-2.2-11.65-6.25-4.85-4.04-7.53-9.77-2.69-5.74-2.69-12.79 0-9.41 4.63-15.91 4.63-6.51 14.34-9.67-7.72-3.23-11.58-9.19-3.86-5.95-3.86-14.33 0-6.03 2.46-11.24 2.47-5.22 6.88-9.08 4.41-3.86 10.54-6.03 6.14-2.17 13.49-2.17 7.35 0 13.49 2.17 6.14 2.17 10.55 6.03 4.41 3.86 6.87 9.08 2.46 5.21 2.46 11.24 0 8.38-3.86 14.33-3.86 5.96-11.57 9.19Zm44.68 15.36h32.34v-34.76q0-4.93.66-10.88l-33 45.64Zm48.15 0h13.37v10.51q0 1.47-.95 2.54-.96 1.06-2.72 1.06h-9.7v25.95h-15.81v-25.95h-44.83q-1.84 0-3.24-1.13-1.39-1.14-1.76-2.83l-1.91-9.19 50.35-67.25h17.2v66.29Z"/></svg>