<svg xmlns="http://www.w3.org/2000/svg" width="271" height="154" viewBox="0 0 271 154"><rect width="100%" height="100%" fill="#743877"/><path fill="#743877" d="M64.425 85.875h6.68q.72 0 1.14.4.43.41.43 1.08v2.66h-17.86v-1.48q0-.45.19-.94.19-.5.6-.89l7.9-7.92q.99-1.01 1.78-1.93.78-.92 1.3-1.82t.8-1.82q.28-.93.28-1.96 0-.93-.27-1.64-.27-.71-.76-1.2-.5-.49-1.19-.73t-1.56-.24q-.79 0-1.47.22-.67.23-1.19.63-.52.41-.88.95t-.54 1.19q-.31.82-.8 1.09-.48.27-1.4.13l-2.34-.41q.27-1.88 1.04-3.29.78-1.41 1.94-2.36 1.16-.94 2.66-1.42 1.51-.48 3.23-.48 1.8 0 3.3.53 1.49.54 2.55 1.51 1.07.97 1.66 2.34.59 1.37.59 3.04 0 1.44-.42 2.66-.42 1.23-1.13 2.34-.71 1.12-1.67 2.16-.95 1.05-2 2.13l-5.86 5.99q.84-.25 1.68-.39.84-.13 1.59-.13Zm11.58-21.89h17.98v1.93q0 .86-.18 1.39-.18.53-.36.89l-9.87 20.31q-.3.63-.86 1.07-.56.44-1.49.44h-3.23l10.07-19.89q.34-.61.67-1.13.33-.51.75-.98h-12.46q-.41 0-.72-.3-.3-.31-.3-.72v-3.01Zm33.15 22.7h4.68v3.33h-14.4v-3.33h5.28v-15.17q0-.9.05-1.86l-3.74 3.13q-.33.26-.64.32-.32.06-.6.01-.28-.06-.49-.19-.22-.14-.33-.3l-1.4-1.92 7.94-6.75h3.65v22.73Zm34.62-2.63-2.36 2.32-6.1-6.1-6.16 6.14-2.36-2.32 6.16-6.18-5.87-5.86 2.34-2.34 5.87 5.86 5.83-5.83 2.38 2.34-5.85 5.85 6.12 6.12Zm24.64 2.63h4.68v3.33h-14.4v-3.33h5.27v-15.17q0-.9.06-1.86l-3.75 3.13q-.32.26-.64.32-.31.06-.59.01-.28-.06-.5-.19-.21-.14-.32-.3l-1.4-1.92 7.93-6.75h3.66v22.73Zm15.15-18.67-.91 5.42q.86-.18 1.65-.26.79-.08 1.53-.08 2.05 0 3.62.61 1.57.61 2.63 1.69 1.06 1.08 1.6 2.53.54 1.45.54 3.13 0 2.07-.73 3.78t-2.02 2.92q-1.3 1.22-3.07 1.88-1.78.67-3.86.67-1.23 0-2.33-.25-1.09-.26-2.06-.68-.96-.42-1.78-.97-.82-.55-1.47-1.16l1.37-1.89q.43-.61 1.14-.61.45 0 .91.28.47.29 1.08.63.6.35 1.42.63.82.29 1.97.29 1.22 0 2.16-.39.93-.4 1.56-1.11.62-.71.93-1.69.32-.98.32-2.14 0-2.12-1.24-3.32-1.23-1.19-3.64-1.19-1.86 0-3.8.68l-2.77-.79 2.16-12.64h12.85v1.89q0 .96-.59 1.55-.6.59-2.02.59h-7.15Zm17.55 12.19h7.92v-8.51q0-1.21.17-2.67l-8.09 11.18Zm11.79 0h3.28v2.57q0 .36-.23.62-.24.27-.67.27h-2.38v6.35h-3.87v-6.35h-10.98q-.45 0-.79-.28t-.43-.7l-.47-2.25 12.33-16.47h4.21v16.24Z"/></svg>